<svg xmlns="http://www.w3.org/2000/svg" width="420" height="120" viewBox="0 0 420 120" shape-rendering="crispEdges">
  <!-- Butcher-paper banner tied directly to the overpass railing. -->
  <g fill="none" stroke="#a9783e" stroke-width="4">
    <path d="M31 2l4 28M389 1l-5 28"/>
    <path d="M25 8l13 2M382 8l13-2" stroke="#d49a51" stroke-width="3"/>
  </g>

  <path d="M20 24Q111 30 209 27Q307 31 401 21L398 96Q307 91 213 99Q116 93 23 101Z"
        fill="#e9dfc4" stroke="#4a3830" stroke-width="4"/>
  <path d="M27 31Q110 37 208 34Q308 37 393 29M30 92Q117 85 212 91Q307 83 391 88"
        fill="none" stroke="#b7a882" stroke-width="2" opacity="0.75"/>
  <path d="M102 31q9 31 2 62M294 31q-8 27 1 59M206 33q-4 28 3 59"
        fill="none" stroke="#c8bb99" stroke-width="2" opacity="0.7"/>

  <g fill="#c79a59" stroke="#6f4c2d" stroke-width="1">
    <path d="M22 24l26 4-3 13-25-4z"/>
    <path d="M376 24l25-3 2 13-25 4z"/>
  </g>

  <text x="210" y="58" text-anchor="middle" fill="#3c4653"
        font-family="'Trebuchet MS', Verdana, Arial, sans-serif" font-size="15" font-weight="800">WELCOME</text>
  <text x="210" y="84" text-anchor="middle" fill="#a8402d" stroke="#5a2a25" stroke-width="0.8" paint-order="stroke"
        font-family="'Arial Black', 'Trebuchet MS', Arial, sans-serif" font-size="25" font-weight="900">GHOULS &amp; GOBLINS</text>
</svg>
